# xmcd
#
# Track frame offsets: 
#        150
#        29627
#        64925
#        94582
#        115530
#        139257
#
# Disc length: 2385 seconds
#
# Revision: 3
# Processed by: cddbd v1.5.2PL0 Copyright (c) Steve Scherf et al.
# Submitted via: ExactAudioCopy v0.99pb5
#
DISCID=4e094f06
DTITLE=Bobbi Humphrey - Blacks and Blues
DYEAR=1973
DGENRE=Fusion
TTITLE0=Chicago, Damn
TTITLE1=Harlem River Drive
TTITLE2=Just A Love Child
TTITLE3=Blacks and Blues
TTITLE4=Jasper Country Man
TTITLE5=Baby's Gone
EXTD=Blue Note RECORDS. 1999\n\nRecorded July 7 and 8, 1973 \nat Soundfa
EXTD=ctory, Hollywood YEAR: 1973 ID3G: 8
EXTT0=
EXTT1=
EXTT2=
EXTT3=
EXTT4=
EXTT5=
PLAYORDER=
